<svg xmlns="http://www.w3.org/2000/svg" viewBox="0 0 470 170">
  <!-- Geometric shape on the left -->
  <g fill="#FFA726">
    <polygon points="10,85 75,20 140,85 75,150"/>
    <polygon points="10,85 75,20 75,85"/>
    <polygon points="75,20 140,85 75,85"/>
    <polygon points="10,85 75,150 75,85"/>
    <polygon points="75,150 140,85 75,85"/>
    <line x1="10" y1="85" x2="140" y2="85" stroke="#FFA726" stroke-width="2"/>
    <line x1="75" y1="20" x2="75" y2="150" stroke="#FFA726" stroke-width="2"/>
    <line x1="10" y1="85" x2="75" y2="20" stroke="#FFA726" stroke-width="2"/>
    <line x1="75" y1="20" x2="140" y2="85" stroke="#FFA726" stroke-width="2"/>
    <line x1="140" y1="85" x2="75" y2="150" stroke="#FFA726" stroke-width="2"/>
    <line x1="75" y1="150" x2="10" y2="85" stroke="#FFA726" stroke-width="2"/>
  </g>
  
  <!-- Text "saber" -->
  <path d="M185,50c-5.5,0-10.3,1.2-14.4,3.5c-4.1,2.3-7.3,5.6-9.6,9.8c-2.3,4.2-3.4,9-3.4,14.5c0,5.5,1.1,10.3,3.4,14.5
    c2.3,4.2,5.5,7.4,9.6,9.8c4.1,2.3,8.9,3.5,14.4,3.5c4.2,0,8-0.7,11.4-2.2c3.4-1.5,6.2-3.6,8.4-6.3c2.2-2.7,3.6-5.9,4.2-9.6h-13.2
    c-0.9,2.5-2.3,4.4-4.2,5.8c-1.9,1.4-4.2,2.1-6.9,2.1c-3.1,0-5.7-0.8-7.9-2.5c-2.2-1.7-3.6-4-4.3-7h37.8c0.2-1.1,0.3-2.3,0.3-3.6
    c0-5.5-1.1-10.3-3.4-14.5c-2.3-4.2-5.5-7.4-9.6-9.8C195.3,51.2,190.5,50,185,50z M173.1,72.5c0.7-3,2.1-5.3,4.3-7
    c2.2-1.7,4.8-2.5,7.9-2.5c2.9,0,5.4,0.8,7.5,2.5c2.1,1.7,3.5,4,4.1,7H173.1z" fill="#004D7F"/>
  
  <!-- Text "a" -->
  <path d="M230,50c-4.2,0-7.9,0.9-11.1,2.8c-3.2,1.9-5.7,4.5-7.5,7.9c-1.8,3.4-2.7,7.3-2.7,11.7c0,4.4,0.9,8.3,2.7,11.7
    c1.8,3.4,4.3,6,7.5,7.9c3.2,1.9,6.9,2.8,11.1,2.8c3.3,0,6.3-0.7,8.9-2c2.6-1.3,4.7-3.2,6.2-5.5v6.8h12.6V50.7h-12.6v6.8
    c-1.5-2.3-3.6-4.2-6.2-5.5C236.3,50.7,233.3,50,230,50z M233.5,84.7c-3.1,0-5.7-1.1-7.8-3.2c-2.1-2.1-3.1-4.9-3.1-8.3
    c0-3.4,1-6.1,3.1-8.3c2.1-2.1,4.7-3.2,7.8-3.2c3.1,0,5.7,1.1,7.8,3.2c2.1,2.1,3.1,4.9,3.1,8.3c0,3.4-1,6.1-3.1,8.3
    C239.2,83.6,236.6,84.7,233.5,84.7z" fill="#004D7F"/>
  
  <!-- Text "b" -->
  <path d="M280,50c-3.3,0-6.3,0.7-8.9,2c-2.6,1.3-4.7,3.2-6.2,5.5v-6.8h-12.6v63.6h12.6V87.5c1.5,2.3,3.6,4.2,6.2,5.5
    c2.6,1.3,5.6,2,8.9,2c4.2,0,7.9-0.9,11.1-2.8c3.2-1.9,5.7-4.5,7.5-7.9c1.8-3.4,2.7-7.3,2.7-11.7c0-4.4-0.9-8.3-2.7-11.7
    c-1.8-3.4-4.3-6-7.5-7.9C287.9,50.9,284.2,50,280,50z M276.5,84.7c-3.1,0-5.7-1.1-7.8-3.2c-2.1-2.1-3.1-4.9-3.1-8.3
    c0-3.4,1-6.1,3.1-8.3c2.1-2.1,4.7-3.2,7.8-3.2c3.1,0,5.7,1.1,7.8,3.2c2.1,2.1,3.1,4.9,3.1,8.3c0,3.4-1,6.1-3.1,8.3
    C282.2,83.6,279.6,84.7,276.5,84.7z" fill="#004D7F"/>
  
  <!-- Text "e" -->
  <path d="M325,50c-4.2,0-7.9,0.9-11.1,2.8c-3.2,1.9-5.7,4.5-7.5,7.9c-1.8,3.4-2.7,7.3-2.7,11.7c0,4.4,0.9,8.3,2.7,11.7
    c1.8,3.4,4.3,6,7.5,7.9c3.2,1.9,6.9,2.8,11.1,2.8c4.2,0,7.9-0.9,11.1-2.8c3.2-1.9,5.7-4.5,7.5-7.9c1.8-3.4,2.7-7.3,2.7-11.7
    c0-4.4-0.9-8.3-2.7-11.7c-1.8-3.4-4.3-6-7.5-7.9C332.9,50.9,329.2,50,325,50z M325,61.7c3.1,0,5.7,1.1,7.8,3.2
    c2.1,2.1,3.1,4.9,3.1,8.3c0,3.4-1,6.1-3.1,8.3c-2.1,2.1-4.7,3.2-7.8,3.2c-3.1,0-5.7-1.1-7.8-3.2c-2.1-2.1-3.1-4.9-3.1-8.3
    c0-3.4,1-6.1,3.1-8.3C319.3,62.8,321.9,61.7,325,61.7z" fill="#004D7F"/>
  
  <!-- Text "r" -->
  <path d="M365,50c-3.3,0-6.3,0.7-8.9,2c-2.6,1.3-4.7,3.2-6.2,5.5v-6.8h-12.6v43.4h12.6V73.2c0-3.4,0.9-6,2.8-7.8
    c1.9-1.8,4.4-2.7,7.6-2.7c2.9,0,5.2,0.9,6.9,2.6c1.7,1.7,2.6,4.2,2.6,7.5v21.3h12.6V70.7c0-6.3-1.7-11.1-5-14.4
    C374.1,53,370,50,365,50z" fill="#004D7F"/>
  
  <!-- Text "em" -->
  <path d="M250,120c-4.2,0-7.9,0.9-11.1,2.8c-3.2,1.9-5.7,4.5-7.5,7.9c-1.8,3.4-2.7,7.3-2.7,11.7c0,4.4,0.9,8.3,2.7,11.7
    c1.8,3.4,4.3,6,7.5,7.9c3.2,1.9,6.9,2.8,11.1,2.8c3.3,0,6.3-0.7,8.9-2c2.6-1.3,4.7-3.2,6.2-5.5v6.8h12.6v-43.4h-12.6v6.8
    c-1.5-2.3-3.6-4.2-6.2-5.5C256.3,120.7,253.3,120,250,120z M253.5,154.7c-3.1,0-5.7-1.1-7.8-3.2c-2.1-2.1-3.1-4.9-3.1-8.3
    c0-3.4,1-6.1,3.1-8.3c2.1-2.1,4.7-3.2,7.8-3.2c3.1,0,5.7,1.1,7.8,3.2c2.1,2.1,3.1,4.9,3.1,8.3c0,3.4-1,6.1-3.1,8.3
    C259.2,153.6,256.6,154.7,253.5,154.7z" fill="#FFA726"/>
  
  <!-- Text "rede" -->
  <path d="M300,120c-3.3,0-6.3,0.7-8.9,2c-2.6,1.3-4.7,3.2-6.2,5.5v-6.8h-12.6v43.4h12.6v-20.9c0-3.4,0.9-6,2.8-7.8
    c1.9-1.8,4.4-2.7,7.6-2.7c2.9,0,5.2,0.9,6.9,2.6c1.7,1.7,2.6,4.2,2.6,7.5v21.3h12.6v-23.4c0-6.3-1.7-11.1-5-14.4
    C309.1,123,305,120,300,120z" fill="#004D7F"/>
  
  <!-- Text "e" -->
  <path d="M345,120c-4.2,0-7.9,0.9-11.1,2.8c-3.2,1.9-5.7,4.5-7.5,7.9c-1.8,3.4-2.7,7.3-2.7,11.7c0,4.4,0.9,8.3,2.7,11.7
    c1.8,3.4,4.3,6,7.5,7.9c3.2,1.9,6.9,2.8,11.1,2.8c4.2,0,7.9-0.9,11.1-2.8c3.2-1.9,5.7-4.5,7.5-7.9c1.8-3.4,2.7-7.3,2.7-11.7
    c0-4.4-0.9-8.3-2.7-11.7c-1.8-3.4-4.3-6-7.5-7.9C352.9,120.9,349.2,120,345,120z M345,131.7c3.1,0,5.7,1.1,7.8,3.2
    c2.1,2.1,3.1,4.9,3.1,8.3c0,3.4-1,6.1-3.1,8.3c-2.1,2.1-4.7,3.2-7.8,3.2c-3.1,0-5.7-1.1-7.8-3.2c-2.1-2.1-3.1-4.9-3.1-8.3
    c0-3.4,1-6.1,3.1-8.3C339.3,132.8,341.9,131.7,345,131.7z" fill="#004D7F"/>
  
  <!-- Text "d" -->
  <path d="M390,120c-3.3,0-6.3,0.7-8.9,2c-2.6,1.3-4.7,3.2-6.2,5.5v-6.8h-12.6v63.6h12.6v-27c1.5,2.3,3.6,4.2,6.2,5.5
    c2.6,1.3,5.6,2,8.9,2c4.2,0,7.9-0.9,11.1-2.8c3.2-1.9,5.7-4.5,7.5-7.9c1.8-3.4,2.7-7.3,2.7-11.7c0-4.4-0.9-8.3-2.7-11.7
    c-1.8-3.4-4.3-6-7.5-7.9C397.9,120.9,394.2,120,390,120z M386.5,154.7c-3.1,0-5.7-1.1-7.8-3.2c-2.1-2.1-3.1-4.9-3.1-8.3
    c0-3.4,1-6.1,3.1-8.3c2.1-2.1,4.7-3.2,7.8-3.2c3.1,0,5.7,1.1,7.8,3.2c2.1,2.1,3.1,4.9,3.1,8.3c0,3.4-1,6.1-3.1,8.3
    C392.2,153.6,389.6,154.7,386.5,154.7z" fill="#004D7F"/>
  
  <!-- Text "e" -->
  <path d="M435,120c-4.2,0-7.9,0.9-11.1,2.8c-3.2,1.9-5.7,4.5-7.5,7.9c-1.8,3.4-2.7,7.3-2.7,11.7c0,4.4,0.9,8.3,2.7,11.7
    c1.8,3.4,4.3,6,7.5,7.9c3.2,1.9,6.9,2.8,11.1,2.8c4.2,0,7.9-0.9,11.1-2.8c3.2-1.9,5.7-4.5,7.5-7.9c1.8-3.4,2.7-7.3,2.7-11.7
    c0-4.4-0.9-8.3-2.7-11.7c-1.8-3.4-4.3-6-7.5-7.9C442.9,120.9,439.2,120,435,120z M435,131.7c3.1,0,5.7,1.1,7.8,3.2
    c2.1,2.1,3.1,4.9,3.1,8.3c0,3.4-1,6.1-3.1,8.3c-2.1,2.1-4.7,3.2-7.8,3.2c-3.1,0-5.7-1.1-7.8-3.2c-2.1-2.1-3.1-4.9-3.1-8.3
    c0-3.4,1-6.1,3.1-8.3C429.3,132.8,431.9,131.7,435,131.7z" fill="#004D7F"/>
</svg>
